<?xml version="1.0" encoding="UTF-8"?>
<svg xmlns="http://www.w3.org/2000/svg" xmlns:xlink="http://www.w3.org/1999/xlink" viewBox="0 0 1214 685.5">
  <defs>
    <style>
      .cls-1 {
        stroke-width: 3px;
      }

      .cls-1, .cls-2, .cls-3 {
        stroke-miterlimit: 10;
      }

      .cls-1, .cls-3 {
        fill: #fff;
        stroke: #000;
      }

      .cls-4 {
        fill: url(#linear-gradient-15);
      }

      .cls-5 {
        fill: url(#linear-gradient-13);
      }

      .cls-6 {
        fill: url(#linear-gradient-2);
      }

      .cls-7 {
        fill: url(#linear-gradient-10);
      }

      .cls-8 {
        fill: url(#linear-gradient-12);
      }

      .cls-9 {
        opacity: .67;
      }

      .cls-10 {
        fill: url(#linear-gradient-4);
      }

      .cls-11 {
        fill: url(#linear-gradient-3);
      }

      .cls-12 {
        fill: url(#linear-gradient-5);
      }

      .cls-13 {
        fill: url(#linear-gradient-8);
      }

      .cls-14 {
        fill: url(#linear-gradient-14);
      }

      .cls-15 {
        fill: #333;
      }

      .cls-2 {
        fill: none;
        stroke: #fff;
        stroke-linecap: round;
        stroke-width: 9px;
      }

      .cls-16 {
        fill: url(#linear-gradient-20);
      }

      .cls-17 {
        fill: url(#linear-gradient-17);
      }

      .cls-18 {
        fill: url(#linear-gradient-7);
      }

      .cls-19 {
        fill: #1a1a1a;
      }

      .cls-20 {
        fill: url(#linear-gradient-9);
      }

      .cls-21 {
        fill: url(#linear-gradient-11);
      }

      .cls-22 {
        fill: url(#linear-gradient-19);
      }

      .cls-23 {
        fill: url(#linear-gradient-6);
      }

      .cls-24 {
        fill: #ccc;
      }

      .cls-25 {
        fill: url(#linear-gradient-21);
      }

      .cls-3 {
        stroke-width: 6px;
      }

      .cls-26 {
        fill: url(#linear-gradient-16);
      }

      .cls-27 {
        fill: url(#linear-gradient);
      }

      .cls-28 {
        fill: url(#linear-gradient-18);
      }
    </style>
    <linearGradient id="linear-gradient" x1="615.358" y1="3" x2="615.358" y2="284" gradientUnits="userSpaceOnUse">
      <stop offset=".082" stop-color="#fff"/>
      <stop offset=".088" stop-color="#f5f5f5" stop-opacity=".987"/>
      <stop offset=".121" stop-color="#c7c7c7" stop-opacity=".92"/>
      <stop offset=".158" stop-color="#9c9c9c" stop-opacity=".858"/>
      <stop offset=".197" stop-color="#777" stop-opacity=".803"/>
      <stop offset=".24" stop-color="#565656" stop-opacity=".756"/>
      <stop offset=".288" stop-color="#3b3b3b" stop-opacity=".716"/>
      <stop offset=".342" stop-color="#252525" stop-opacity=".684"/>
      <stop offset=".405" stop-color="#141414" stop-opacity=".66"/>
      <stop offset=".483" stop-color="#080808" stop-opacity=".643"/>
      <stop offset=".592" stop-color="#010101" stop-opacity=".633"/>
      <stop offset=".895" stop-color="#000" stop-opacity=".63"/>
    </linearGradient>
    <linearGradient id="linear-gradient-2" x1="616.358" y1="266" x2="616.358" y2="18.18" gradientUnits="userSpaceOnUse">
      <stop offset=".104" stop-color="#fff"/>
      <stop offset=".171" stop-color="#f5f5f5" stop-opacity=".986"/>
      <stop offset=".283" stop-color="#dbdbdb" stop-opacity=".948"/>
      <stop offset=".427" stop-color="#b0b0b0" stop-opacity=".886"/>
      <stop offset=".596" stop-color="#757575" stop-opacity=".801"/>
      <stop offset=".786" stop-color="#2b2b2b" stop-opacity=".693"/>
      <stop offset=".888" stop-color="#000" stop-opacity=".63"/>
    </linearGradient>
    <linearGradient id="linear-gradient-3" x1="607" y1="187.5" x2="607" y2="681.5" gradientUnits="userSpaceOnUse">
      <stop offset=".175" stop-color="#fff"/>
      <stop offset=".227" stop-color="#f4f4f4" stop-opacity=".985"/>
      <stop offset=".316" stop-color="#d9d9d9" stop-opacity=".945"/>
      <stop offset=".432" stop-color="#acacac" stop-opacity=".88"/>
      <stop offset=".57" stop-color="#6d6d6d" stop-opacity=".789"/>
      <stop offset=".725" stop-color="#1f1f1f" stop-opacity=".675"/>
      <stop offset=".783" stop-color="#000" stop-opacity=".63"/>
    </linearGradient>
    <linearGradient id="linear-gradient-4" x1="1028.876" y1="564.087" x2="1028.876" y2="293.46" gradientTransform="translate(1254.848 862.758) rotate(-180)" xlink:href="#linear-gradient-2"/>
    <linearGradient id="linear-gradient-5" x1="258.662" y1="564.087" x2="258.662" y2="293.46" gradientTransform="translate(1254.848 862.758) rotate(-180)" xlink:href="#linear-gradient-2"/>
    <linearGradient id="linear-gradient-6" x1="-736.5" y1="40.199" x2="-736.5" y2="10.801" gradientTransform="translate(-477 275) rotate(-180)" xlink:href="#linear-gradient-2"/>
    <linearGradient id="linear-gradient-7" x1="-854.673" y1="40.181" x2="-854.673" y2="10.783" gradientTransform="translate(-477 275) rotate(-180)" xlink:href="#linear-gradient-2"/>
    <linearGradient id="linear-gradient-8" x1="-1388.604" y1="39.5" x2="-1388.604" y2="13.181" gradientTransform="translate(-477 275) rotate(-180)" xlink:href="#linear-gradient-2"/>
    <linearGradient id="linear-gradient-9" x1="-1443.691" y1="39.205" x2="-1443.691" y2="12.886" gradientTransform="translate(-477 275) rotate(-180)" xlink:href="#linear-gradient-2"/>
    <linearGradient id="linear-gradient-10" x1="-1500.691" y1="38.205" x2="-1500.691" y2="11.886" gradientTransform="translate(-477 275) rotate(-180)" xlink:href="#linear-gradient-2"/>
    <linearGradient id="linear-gradient-11" x1="226.976" y1="539.078" x2="226.976" y2="330.019" xlink:href="#linear-gradient-2"/>
    <linearGradient id="linear-gradient-12" x1="997.197" y1="539.078" x2="997.197" y2="330.019" xlink:href="#linear-gradient-2"/>
    <linearGradient id="linear-gradient-13" x1="506.776" y1="512.476" x2="506.776" y2="492.621" gradientTransform="translate(1254.848 862.758) rotate(-180)" gradientUnits="userSpaceOnUse">
      <stop offset=".104" stop-color="#fff"/>
      <stop offset=".171" stop-color="#f5f5f5"/>
      <stop offset=".283" stop-color="#dbdbdb"/>
      <stop offset=".427" stop-color="#b0b0b0"/>
      <stop offset=".596" stop-color="#757575"/>
      <stop offset=".786" stop-color="#2b2b2b"/>
      <stop offset=".888" stop-color="#000"/>
    </linearGradient>
    <linearGradient id="linear-gradient-14" x1="462.594" y1="532.367" x2="462.594" y2="512.512" xlink:href="#linear-gradient-13"/>
    <linearGradient id="linear-gradient-15" x1="552.594" y1="505.367" x2="552.594" y2="485.512" xlink:href="#linear-gradient-13"/>
    <linearGradient id="linear-gradient-16" x1="598.594" y1="516.367" x2="598.594" y2="496.512" xlink:href="#linear-gradient-13"/>
    <linearGradient id="linear-gradient-17" x1="643.594" y1="532.367" x2="643.594" y2="512.512" xlink:href="#linear-gradient-13"/>
    <linearGradient id="linear-gradient-18" x1="688.594" y1="506.367" x2="688.594" y2="486.512" xlink:href="#linear-gradient-13"/>
    <linearGradient id="linear-gradient-19" x1="732.594" y1="532.367" x2="732.594" y2="512.512" xlink:href="#linear-gradient-13"/>
    <linearGradient id="linear-gradient-20" x1="777.594" y1="510.367" x2="777.594" y2="490.512" xlink:href="#linear-gradient-13"/>
    <linearGradient id="linear-gradient-21" x1="823.594" y1="526.367" x2="823.594" y2="506.512" xlink:href="#linear-gradient-13"/>
  </defs>
  <g id="Body">
    <g>
      <path class="cls-27" d="M110.686,284c-12.39,0-22.47-10.08-22.47-22.47V25.47c0-12.39,10.08-22.47,22.47-22.47h1009.345c12.39,0,22.47,10.08,22.47,22.47v236.061c0,12.39-10.08,22.47-22.47,22.47H110.686ZM179.97,54c-14.044,0-25.47,11.426-25.47,25.47v134.061c0,14.044,11.426,25.47,25.47,25.47h875.061c14.044,0,25.47-11.426,25.47-25.47V79.47c0-14.044-11.426-25.47-25.47-25.47H179.97Z"/>
      <path d="M1120.03,4.5c11.563,0,20.97,9.407,20.97,20.97v236.061c0,11.563-9.407,20.97-20.97,20.97H110.686c-11.563,0-20.97-9.407-20.97-20.97V25.47c0-11.563,9.407-20.97,20.97-20.97h1009.345M179.97,240.5h875.061c14.871,0,26.97-12.099,26.97-26.97V79.47c0-14.871-12.099-26.97-26.97-26.97H179.97c-14.871,0-26.97,12.099-26.97,26.97v134.061c0,14.871,12.099,26.97,26.97,26.97M1120.03,1.5H110.686c-13.238,0-23.97,10.732-23.97,23.97v236.061c0,13.238,10.732,23.97,23.97,23.97h1009.345c13.238,0,23.97-10.732,23.97-23.97V25.47c0-13.238-10.732-23.97-23.97-23.97h0ZM179.97,237.5c-13.238,0-23.97-10.732-23.97-23.97V79.47c0-13.238,10.732-23.97,23.97-23.97h875.061c13.238,0,23.97,10.732,23.97,23.97v134.061c0,13.238-10.732,23.97-23.97,23.97H179.97Z"/>
    </g>
    <g class="cls-9">
      <path class="cls-6" d="M127.903,266c-12.39,0-22.47-10.08-22.47-22.47V40.649c0-12.39,10.08-22.47,22.47-22.47h976.909c12.39,0,22.47,10.08,22.47,22.47v202.881c0,12.39-10.08,22.47-22.47,22.47H127.903ZM179.97,54c-14.044,0-25.47,11.426-25.47,25.47v134.061c0,14.044,11.426,25.47,25.47,25.47h875.061c14.044,0,25.47-11.426,25.47-25.47V79.47c0-14.044-11.426-25.47-25.47-25.47H179.97Z"/>
      <path d="M1104.813,19.68c11.563,0,20.97,9.407,20.97,20.97v202.881c0,11.563-9.407,20.97-20.97,20.97H127.904c-11.563,0-20.97-9.407-20.97-20.97V40.65c0-11.563,9.407-20.97,20.97-20.97h976.909M179.97,240.5h875.061c14.871,0,26.97-12.099,26.97-26.97V79.47c0-14.871-12.099-26.97-26.97-26.97H179.97c-14.871,0-26.97,12.099-26.97,26.97v134.061c0,14.871,12.099,26.97,26.97,26.97M1104.813,16.68H127.904c-13.238,0-23.97,10.732-23.97,23.97v202.881c0,13.238,10.732,23.97,23.97,23.97h976.909c13.238,0,23.97-10.732,23.97-23.97V40.65c0-13.238-10.732-23.97-23.97-23.97h0ZM179.97,237.5c-13.238,0-23.97-10.732-23.97-23.97V79.47c0-13.238,10.732-23.97,23.97-23.97h875.061c13.238,0,23.97,10.731,23.97,23.97v134.061c0,13.238-10.732,23.97-23.97,23.97H179.97Z"/>
    </g>
    <g>
      <path class="cls-11" d="M47.045,187.5h1119.909c23.757,0,43.045,19.288,43.045,43.045v407.909c0,23.758-19.288,43.046-43.046,43.046H47.046c-23.758,0-43.046-19.288-43.046-43.046V230.545c0-23.757,19.288-43.045,43.045-43.045Z"/>
      <path d="M1166.955,191.5c21.53,0,39.045,17.516,39.045,39.046v407.909c0,21.53-17.516,39.045-39.045,39.045H47.046c-21.53,0-39.046-17.516-39.046-39.045V230.546c0-21.53,17.516-39.046,39.046-39.046h1119.909M1166.955,183.5H47.046c-25.983,0-47.046,21.063-47.046,47.046v407.909c0,25.982,21.063,47.045,47.046,47.045h1119.909c25.982,0,47.045-21.063,47.045-47.045V230.546c0-25.983-21.063-47.046-47.045-47.046h0Z"/>
    </g>
    <g>
      <path class="cls-24" d="M85.045,211h1043.054c24.585,0,44.545,19.96,44.545,44.545v357.909c0,24.585-19.96,44.545-44.545,44.545H85.046c-24.586,0-44.546-19.96-44.546-44.546V255.545c0-24.585,19.96-44.545,44.545-44.545Z"/>
      <path d="M1128.099,213.5c23.184,0,42.045,18.862,42.045,42.045v357.909c0,23.184-18.862,42.046-42.045,42.046H85.045c-23.184,0-42.045-18.862-42.045-42.046V255.545c0-23.184,18.862-42.045,42.045-42.045h1043.053M1128.099,208.5H85.045c-25.982,0-47.045,21.063-47.045,47.045v357.909c0,25.983,21.063,47.046,47.045,47.046h1043.053c25.982,0,47.045-21.063,47.045-47.046V255.545c0-25.982-21.063-47.045-47.045-47.045h0Z"/>
    </g>
    <g>
      <path class="cls-10" d="M225.973,569.298c-74.612,0-135.313-60.701-135.313-135.313s60.701-135.313,135.313-135.313,135.313,60.701,135.313,135.313-60.701,135.313-135.313,135.313Z"/>
      <path d="M225.973,302.171c35.209,0,68.31,13.711,93.206,38.607,24.896,24.896,38.607,57.998,38.607,93.206s-13.711,68.31-38.607,93.206c-24.896,24.896-57.998,38.607-93.206,38.607s-68.31-13.711-93.206-38.607c-24.896-24.896-38.607-57.997-38.607-93.206s13.711-68.31,38.607-93.206c24.896-24.896,57.998-38.607,93.206-38.607M225.973,295.171c-76.665,0-138.813,62.149-138.813,138.813s62.149,138.813,138.813,138.813,138.813-62.149,138.813-138.813-62.149-138.813-138.813-138.813h0Z"/>
    </g>
    <g>
      <path class="cls-12" d="M996.187,569.298c-74.612,0-135.313-60.701-135.313-135.313s60.701-135.313,135.313-135.313,135.313,60.701,135.313,135.313-60.701,135.313-135.313,135.313Z"/>
      <path d="M996.187,302.171c35.209,0,68.31,13.711,93.206,38.607,24.896,24.896,38.607,57.998,38.607,93.206s-13.711,68.31-38.607,93.206c-24.896,24.896-57.997,38.607-93.206,38.607s-68.31-13.711-93.206-38.607c-24.896-24.896-38.607-57.998-38.607-93.206s13.711-68.31,38.607-93.206c24.896-24.896,57.998-38.607,93.206-38.607M996.187,295.171c-76.665,0-138.813,62.149-138.813,138.813s62.149,138.813,138.813,138.813,138.813-62.149,138.813-138.813-62.149-138.813-138.813-138.813h0Z"/>
    </g>
    <g>
      <rect class="cls-23" x="216" y="234.801" width="87" height="29.398" rx="10.164" ry="10.164"/>
      <path d="M292.836,236.801c4.501,0,8.164,3.662,8.164,8.164v9.071c0,4.501-3.662,8.164-8.164,8.164h-66.673c-4.501,0-8.164-3.662-8.164-8.164v-9.071c0-4.501,3.662-8.164,8.164-8.164h66.673M292.836,232.801h-66.673c-6.718,0-12.164,5.446-12.164,12.164v9.071c0,6.718,5.446,12.164,12.164,12.164h66.673c6.718,0,12.164-5.446,12.164-12.164v-9.071c0-6.718-5.446-12.164-12.164-12.164h0Z"/>
    </g>
    <g>
      <rect class="cls-18" x="334.173" y="234.819" width="87" height="29.398" rx="10.164" ry="10.164"/>
      <path d="M411.009,236.819c4.501,0,8.164,3.662,8.164,8.164v9.071c0,4.501-3.662,8.164-8.164,8.164h-66.673c-4.501,0-8.164-3.662-8.164-8.164v-9.071c0-4.501,3.662-8.164,8.164-8.164h66.673M411.009,232.819h-66.673c-6.718,0-12.164,5.446-12.164,12.164v9.071c0,6.718,5.446,12.164,12.164,12.164h66.673c6.718,0,12.164-5.446,12.164-12.164v-9.071c0-6.718-5.446-12.164-12.164-12.164h0Z"/>
    </g>
    <g>
      <rect class="cls-13" x="893.677" y="235.5" width="35.855" height="26.319" rx="10.164" ry="10.164"/>
      <path d="M919.369,237.5c4.501,0,8.164,3.662,8.164,8.164v5.992c0,4.501-3.662,8.164-8.164,8.164h-15.528c-4.501,0-8.164-3.662-8.164-8.164v-5.992c0-4.501,3.662-8.164,8.164-8.164h15.528M919.369,233.5h-15.528c-6.718,0-12.164,5.446-12.164,12.164v5.992c0,6.718,5.446,12.164,12.164,12.164h15.528c6.718,0,12.164-5.446,12.164-12.164v-5.992c0-6.718-5.446-12.164-12.164-12.164h0Z"/>
    </g>
    <g>
      <path class="cls-20" d="M958.927,235.795h15.528c5.609,0,10.164,4.554,10.164,10.164v5.993c0,5.609-4.554,10.163-10.163,10.163h-15.528c-5.609,0-10.164-4.554-10.164-10.164v-5.993c0-5.609,4.554-10.163,10.163-10.163Z"/>
      <path d="M974.455,237.795c4.501,0,8.164,3.662,8.164,8.164v5.992c0,4.501-3.662,8.164-8.164,8.164h-15.528c-4.501,0-8.164-3.662-8.164-8.164v-5.992c0-4.501,3.662-8.164,8.164-8.164h15.528M974.455,233.795h-15.528c-6.718,0-12.164,5.446-12.164,12.164v5.992c0,6.718,5.446,12.164,12.164,12.164h15.528c6.718,0,12.164-5.446,12.164-12.164v-5.992c0-6.718-5.446-12.164-12.164-12.164h0Z"/>
    </g>
    <g>
      <path class="cls-7" d="M1015.927,236.795h15.528c5.609,0,10.164,4.554,10.164,10.164v5.993c0,5.609-4.554,10.163-10.163,10.163h-15.528c-5.609,0-10.164-4.554-10.164-10.164v-5.993c0-5.609,4.554-10.163,10.163-10.163Z"/>
      <path d="M1031.455,238.795c4.501,0,8.164,3.662,8.164,8.164v5.992c0,4.501-3.662,8.164-8.164,8.164h-15.528c-4.501,0-8.164-3.662-8.164-8.164v-5.992c0-4.501,3.662-8.164,8.164-8.164h15.528M1031.455,234.795h-15.528c-6.718,0-12.164,5.446-12.164,12.164v5.992c0,6.718,5.446,12.164,12.164,12.164h15.528c6.718,0,12.164-5.446,12.164-12.164v-5.992c0-6.718-5.446-12.164-12.164-12.164h0Z"/>
    </g>
    <rect class="cls-3" x="402.5" y="317" width="426" height="78.5" rx="12.355" ry="12.355"/>
    <rect class="cls-1" x="425" y="323" width="13.5" height="67" rx="6.75" ry="6.75"/>
    <rect class="cls-1" x="470.595" y="322.927" width="13.5" height="67" rx="6.75" ry="6.75"/>
    <rect class="cls-1" x="515.595" y="322.927" width="13.5" height="67" rx="6.75" ry="6.75"/>
    <rect class="cls-1" x="559.298" y="322.964" width="13.5" height="67" rx="6.75" ry="6.75"/>
    <rect class="cls-1" x="604.893" y="322.891" width="13.5" height="67" rx="6.75" ry="6.75"/>
    <rect class="cls-1" x="649.893" y="322.891" width="13.5" height="67" rx="6.75" ry="6.75"/>
    <rect class="cls-1" x="695.298" y="322.964" width="13.5" height="67" rx="6.75" ry="6.75"/>
    <rect class="cls-1" x="740.893" y="322.891" width="13.5" height="67" rx="6.75" ry="6.75"/>
    <rect class="cls-1" x="785.893" y="322.891" width="13.5" height="67" rx="6.75" ry="6.75"/>
    <rect class="cls-15" x="358" y="506.5" width="506" height="138" rx="24.273" ry="24.273"/>
  </g>
  <g id="speakers">
    <g>
      <path class="cls-21" d="M226.977,539.078c-57.638,0-104.53-46.892-104.53-104.529s46.892-104.53,104.53-104.53,104.53,46.892,104.53,104.53-46.892,104.529-104.53,104.529Z"/>
      <path d="M226.976,330.518c57.362,0,104.03,46.668,104.03,104.03s-46.668,104.03-104.03,104.03-104.03-46.668-104.03-104.03,46.668-104.03,104.03-104.03M226.976,329.518c-58.007,0-105.03,47.024-105.03,105.03s47.024,105.03,105.03,105.03,105.03-47.024,105.03-105.03-47.024-105.03-105.03-105.03h0Z"/>
    </g>
    <g>
      <path class="cls-8" d="M997.196,539.078c-57.638,0-104.529-46.892-104.529-104.529s46.892-104.53,104.529-104.53,104.53,46.892,104.53,104.53-46.892,104.529-104.53,104.529Z"/>
      <path d="M997.197,330.518c57.362,0,104.03,46.668,104.03,104.03s-46.668,104.03-104.03,104.03-104.03-46.668-104.03-104.03,46.668-104.03,104.03-104.03M997.197,329.518c-58.006,0-105.03,47.024-105.03,105.03s47.024,105.03,105.03,105.03,105.03-47.024,105.03-105.03-47.024-105.03-105.03-105.03h0Z"/>
    </g>
  </g>
  <g id="reflection">
    <path class="cls-2" d="M266.959,487.337c-20.722,20.722-54.319,20.722-75.041,0"/>
    <path class="cls-2" d="M1033.59,486.931c-20.722,20.722-54.319,20.722-75.041,0"/>
  </g>
  <g id="equalizer">
    <circle class="cls-5" cx="748.073" cy="360.209" r="9.927"/>
    <g id="eq8">
      <circle class="cls-14" cx="792.255" cy="340.318" r="9.927"/>
    </g>
    <g id="eq7">
      <circle class="cls-4" cx="702.255" cy="367.318" r="9.927"/>
    </g>
    <g id="eq6">
      <circle class="cls-26" cx="656.255" cy="356.318" r="9.927"/>
    </g>
    <g id="eq5">
      <circle class="cls-17" cx="611.255" cy="340.318" r="9.927"/>
    </g>
    <g id="eq4">
      <circle class="cls-28" cx="566.255" cy="366.318" r="9.927"/>
    </g>
    <g id="eq3">
      <circle class="cls-22" cx="522.255" cy="340.318" r="9.927"/>
    </g>
    <g id="eq2">
      <circle class="cls-16" cx="477.255" cy="362.318" r="9.927"/>
    </g>
    <g id="eq1">
      <circle class="cls-25" cx="431.255" cy="346.318" r="9.927"/>
    </g>
  </g>
  <g id="buttons">
    <rect id="butt5" class="cls-19" x="425" y="407.5" width="48" height="48" rx="11.245" ry="11.245"/>
    <rect id="butt4" class="cls-19" x="748" y="407.5" width="48" height="48" rx="11.245" ry="11.245"/>
    <rect id="butt3" class="cls-19" x="668" y="407.5" width="48" height="48" rx="11.245" ry="11.245"/>
    <rect id="butt2" class="cls-19" x="586" y="407.5" width="48" height="48" rx="11.245" ry="11.245"/>
    <rect id="butt1" class="cls-19" x="504" y="407.5" width="48" height="48" rx="11.245" ry="11.245"/>
  </g>
</svg>